HIERARCHY
ROOT Hips
{
	OFFSET 0.000000 100.481300 0.000000
	CHANNELS 6 Xposition Yposition Zposition Xrotation Yrotation Zrotation 
	JOINT Spine
	{
		OFFSET -0.279200 12.230698 -2.892100
		CHANNELS 3 Xrotation Yrotation Zrotation
		JOINT Spine1
		{
			OFFSET -0.232667 10.192268 -1.242267
			CHANNELS 3 Xrotation Yrotation Zrotation
			JOINT Spine1_split
			{
				OFFSET -0.232667 10.192268 -1.242267
				CHANNELS 3 Xrotation Yrotation Zrotation
				JOINT Spine2
				{
					OFFSET -0.232667 10.192268 -1.242267
					CHANNELS 3 Xrotation Yrotation Zrotation
					JOINT Neck
					{
						OFFSET -0.418800 17.814194 8.416900
						CHANNELS 3 Xrotation Yrotation Zrotation
						JOINT Head
						{
							OFFSET 0.000000 7.031097 3.806800
							CHANNELS 3 Xrotation Yrotation Zrotation
							JOINT HeadTop_End
							{
								OFFSET 0.000000 24.646606 12.978600
								CHANNELS 3 Xrotation Yrotation Zrotation
								End Site
								{
									OFFSET 0.000000 0.000000 0.000000
								}
							}
						}
					}
					JOINT LeftShoulder
					{
						OFFSET 8.476499 7.247704 -3.868750
						CHANNELS 3 Xrotation Yrotation Zrotation
						JOINT LeftShoulder_split
						{
							OFFSET 8.476499 7.247704 -3.868750
							CHANNELS 3 Xrotation Yrotation Zrotation
							JOINT LeftArm
							{
								OFFSET 9.308998 -2.777710 0.208600
								CHANNELS 3 Xrotation Yrotation Zrotation
								JOINT LeftForeArm
								{
									OFFSET 29.972298 0.000000 0.000000
									CHANNELS 3 Xrotation Yrotation Zrotation
									JOINT LeftHand
									{
										OFFSET 26.026505 0.000000 0.000000
										CHANNELS 3 Xrotation Yrotation Zrotation
										JOINT LeftHandThumb1
										{
											OFFSET 12.240501 -7.147949 9.207150
											CHANNELS 3 Xrotation Yrotation Zrotation
											JOINT LeftHandThumb2
											{
												OFFSET 4.138618 -2.389435 2.389433
												CHANNELS 3 Xrotation Yrotation Zrotation
												JOINT LeftHandThumb3
												{
													OFFSET 2.726913 -1.574387 1.574386
													CHANNELS 3 Xrotation Yrotation Zrotation
													JOINT LeftHandThumb4
													{
														OFFSET 3.941010 -2.275345 2.275342
														CHANNELS 3 Xrotation Yrotation Zrotation
														End Site
														{
															OFFSET 0.000000 0.000000 0.000000
														}
													}
												}
											}
										}
										JOINT LeftHandIndex1
										{
											OFFSET 24.424698 -1.985611 5.953459
											CHANNELS 3 Xrotation Yrotation Zrotation
											JOINT LeftHandIndex2
											{
												OFFSET 6.426697 0.000000 0.000000
												CHANNELS 3 Xrotation Yrotation Zrotation
												JOINT LeftHandIndex3
												{
													OFFSET 5.337898 0.000000 0.000000
													CHANNELS 3 Xrotation Yrotation Zrotation
													JOINT LeftHandIndex4
													{
														OFFSET 4.409401 0.000000 0.000000
														CHANNELS 3 Xrotation Yrotation Zrotation
														End Site
														{
															OFFSET 0.000000 0.000000 0.000000
														}
													}
												}
											}
										}
										JOINT LeftHandMiddle1
										{
											OFFSET 23.810104 0.000000 0.000000
											CHANNELS 3 Xrotation Yrotation Zrotation
											JOINT LeftHandMiddle2
											{
												OFFSET 7.176498 0.000000 0.000000
												CHANNELS 3 Xrotation Yrotation Zrotation
												JOINT LeftHandMiddle3
												{
													OFFSET 6.774902 0.000000 0.000000
													CHANNELS 3 Xrotation Yrotation Zrotation
													JOINT LeftHandMiddle4
													{
														OFFSET 5.403328 0.000000 0.000000
														CHANNELS 3 Xrotation Yrotation Zrotation
														End Site
														{
															OFFSET 0.000000 0.000000 0.000000
														}
													}
												}
											}
										}
										JOINT LeftHandRing1
										{
											OFFSET 22.908401 -0.839279 -6.020567
											CHANNELS 3 Xrotation Yrotation Zrotation
											JOINT LeftHandRing2
											{
												OFFSET 6.337502 0.000000 0.000000
												CHANNELS 3 Xrotation Yrotation Zrotation
												JOINT LeftHandRing3
												{
													OFFSET 5.779297 0.000000 0.000000
													CHANNELS 3 Xrotation Yrotation Zrotation
													JOINT LeftHandRing4
													{
														OFFSET 4.965698 0.000000 0.000000
														CHANNELS 3 Xrotation Yrotation Zrotation
														End Site
														{
															OFFSET 0.000000 0.000000 0.000000
														}
													}
												}
											}
										}
										JOINT LeftHandPinky1
										{
											OFFSET 20.037003 -1.530319 -10.950146
											CHANNELS 3 Xrotation Yrotation Zrotation
											JOINT LeftHandPinky2
											{
												OFFSET 5.254700 0.000000 0.000000
												CHANNELS 3 Xrotation Yrotation Zrotation
												JOINT LeftHandPinky3
												{
													OFFSET 4.810204 0.000000 0.000000
													CHANNELS 3 Xrotation Yrotation Zrotation
													JOINT LeftHandPinky4
													{
														OFFSET 3.647202 0.000000 0.000000
														CHANNELS 3 Xrotation Yrotation Zrotation
														End Site
														{
															OFFSET 0.000000 0.000000 0.000000
														}
													}
												}
											}
										}
									}
								}
							}
						}
					}
					JOINT RightShoulder
					{
						OFFSET -7.570500 7.247704 -3.868750
						CHANNELS 3 Xrotation Yrotation Zrotation
						JOINT RightShoulder_split
						{
							OFFSET -7.570500 7.247704 -3.868750
							CHANNELS 3 Xrotation Yrotation Zrotation
							JOINT RightArm
							{
								OFFSET -9.308998 -2.777710 0.208500
								CHANNELS 3 Xrotation Yrotation Zrotation
								JOINT RightForeArm
								{
									OFFSET -29.972300 0.000000 0.000000
									CHANNELS 3 Xrotation Yrotation Zrotation
									JOINT RightHand
									{
										OFFSET -26.026505 0.000000 0.000000
										CHANNELS 3 Xrotation Yrotation Zrotation
										JOINT RightHandThumb1
										{
											OFFSET -12.240601 -7.148026 9.207092
											CHANNELS 3 Xrotation Yrotation Zrotation
											JOINT RightHandThumb2
											{
												OFFSET -4.138618 -2.389435 2.389433
												CHANNELS 3 Xrotation Yrotation Zrotation
												JOINT RightHandThumb3
												{
													OFFSET -2.726974 -1.574417 1.574421
													CHANNELS 3 Xrotation Yrotation Zrotation
													JOINT RightHandThumb4
													{
														OFFSET -3.941010 -2.275345 2.275343
														CHANNELS 3 Xrotation Yrotation Zrotation
														End Site
														{
															OFFSET 0.000000 0.000000 0.000000
														}
													}
												}
											}
										}
										JOINT RightHandIndex1
										{
											OFFSET -24.424698 -1.985657 5.953444
											CHANNELS 3 Xrotation Yrotation Zrotation
											JOINT RightHandIndex2
											{
												OFFSET -6.426697 0.000000 0.000000
												CHANNELS 3 Xrotation Yrotation Zrotation
												JOINT RightHandIndex3
												{
													OFFSET -5.337898 0.000000 0.000000
													CHANNELS 3 Xrotation Yrotation Zrotation
													JOINT RightHandIndex4
													{
														OFFSET -4.409401 0.000000 0.000000
														CHANNELS 3 Xrotation Yrotation Zrotation
														End Site
														{
															OFFSET 0.000000 0.000000 0.000000
														}
													}
												}
											}
										}
										JOINT RightHandMiddle1
										{
											OFFSET -23.810097 0.000000 0.000000
											CHANNELS 3 Xrotation Yrotation Zrotation
											JOINT RightHandMiddle2
											{
												OFFSET -7.176498 0.000000 0.000000
												CHANNELS 3 Xrotation Yrotation Zrotation
												JOINT RightHandMiddle3
												{
													OFFSET -6.774902 0.000000 0.000000
													CHANNELS 3 Xrotation Yrotation Zrotation
													JOINT RightHandMiddle4
													{
														OFFSET -5.403328 0.000000 0.000000
														CHANNELS 3 Xrotation Yrotation Zrotation
														End Site
														{
															OFFSET 0.000000 0.000000 0.000000
														}
													}
												}
											}
										}
										JOINT RightHandRing1
										{
											OFFSET -22.908302 -0.839325 -6.020576
											CHANNELS 3 Xrotation Yrotation Zrotation
											JOINT RightHandRing2
											{
												OFFSET -6.337502 0.000000 0.000000
												CHANNELS 3 Xrotation Yrotation Zrotation
												JOINT RightHandRing3
												{
													OFFSET -5.779297 0.000000 0.000000
													CHANNELS 3 Xrotation Yrotation Zrotation
													JOINT RightHandRing4
													{
														OFFSET -4.965698 0.000000 0.000000
														CHANNELS 3 Xrotation Yrotation Zrotation
														End Site
														{
															OFFSET 0.000000 0.000000 0.000000
														}
													}
												}
											}
										}
										JOINT RightHandPinky1
										{
											OFFSET -20.037003 -1.530334 -10.950259
											CHANNELS 3 Xrotation Yrotation Zrotation
											JOINT RightHandPinky2
											{
												OFFSET -5.254700 0.000000 0.000000
												CHANNELS 3 Xrotation Yrotation Zrotation
												JOINT RightHandPinky3
												{
													OFFSET -4.810204 0.000000 0.000000
													CHANNELS 3 Xrotation Yrotation Zrotation
													JOINT RightHandPinky4
													{
														OFFSET -3.647202 0.000000 0.000000
														CHANNELS 3 Xrotation Yrotation Zrotation
														End Site
														{
															OFFSET 0.000000 0.000000 0.000000
														}
													}
												}
											}
										}
									}
								}
							}
						}
					}
				}
			}
		}
	}
	JOINT LeftUpLeg
	{
		OFFSET 15.427100 -6.655098 0.678600
		CHANNELS 3 Xrotation Yrotation Zrotation
		JOINT LeftLeg
		{
			OFFSET 4.081073 -39.591068 13.024000
			CHANNELS 3 Xrotation Yrotation Zrotation
			JOINT LeftFoot
			{
				OFFSET -4.081074 -37.707932 -15.979700
				CHANNELS 3 Xrotation Yrotation Zrotation
				JOINT LeftToeBase
				{
					OFFSET 5.346399 -15.068900 20.645000
					CHANNELS 3 Xrotation Yrotation Zrotation
					JOINT LeftToe_End
					{
						OFFSET 2.754700 0.931300 11.300900
						CHANNELS 3 Xrotation Yrotation Zrotation
						End Site
						{
							OFFSET 0.000000 0.000000 0.000000
						}
					}
				}
			}
		}
	}
	JOINT RightUpLeg
	{
		OFFSET -15.569500 -6.655098 0.678600
		CHANNELS 3 Xrotation Yrotation Zrotation
		JOINT RightLeg
		{
			OFFSET -4.081825 -39.591045 13.023800
			CHANNELS 3 Xrotation Yrotation Zrotation
			JOINT RightFoot
			{
				OFFSET 4.081824 -37.707954 -15.979600
				CHANNELS 3 Xrotation Yrotation Zrotation
				JOINT RightToeBase
				{
					OFFSET -5.346400 -15.068900 20.645000
					CHANNELS 3 Xrotation Yrotation Zrotation
					JOINT RightToe_End
					{
						OFFSET -2.754700 0.931300 11.300900
						CHANNELS 3 Xrotation Yrotation Zrotation
						End Site
						{
							OFFSET 0.000000 0.000000 0.000000
						}
					}
				}
			}
		}
	}
}
MOTION
Frames: 4
Frame Time: 0.016667
-23.435965 91.987793 -11.500299 11.482767 -133.212267 14.754546 17.438460 4.243600 -0.121594 8.584643 -0.768850 -1.067725 0.000000 0.000000 0.000000 8.613867 -0.684849 -1.055474 6.128084 42.115233 2.848589 7.484601 47.433878 -29.136928 0.000000 -0.000001 0.000001 -2.314310 -19.181509 9.645829 0.000000 0.000000 0.000000 -51.327328 -47.749514 -40.680614 -278.688766 -149.109382 -272.924797 -39.791630 -8.511755 26.630665 -1.432216 -10.034951 7.701094 0.670860 15.323970 -3.924331 -0.521573 -3.699318 0.174552 -0.000002 0.000000 -0.000000 13.261846 -0.987899 16.342227 -0.165924 0.299379 -25.445545 -0.143272 0.296720 -26.596188 0.000001 0.000000 -0.000002 8.548218 -0.380221 4.744678 0.222581 0.632716 -24.241683 0.425352 0.188814 -38.696990 0.000001 0.000003 -0.000001 6.164200 3.070772 -10.552872 0.029708 0.292424 -24.465403 0.388929 0.788386 -36.480385 -0.000001 -0.000000 0.000000 -5.502667 7.612669 -8.221734 0.203298 0.257470 -40.928286 0.239933 0.228461 -40.626751 -0.000000 0.000001 0.000000 -5.432979 22.644164 5.004595 0.000000 0.000000 0.000000 -52.631669 7.939686 23.713483 118.664182 44.432672 -113.869246 -26.452916 -2.612707 -41.869473 0.242762 10.291370 -10.807267 1.082985 -16.586930 3.348088 3.358787 -13.364659 -8.312650 0.000000 -0.000000 -0.000000 19.476558 11.202827 -14.310225 -0.119537 -0.321872 17.065448 -0.094948 -0.296264 22.286462 -0.000001 -0.000001 -0.000005 4.333497 2.440267 -5.783578 0.339399 -0.451952 25.920226 0.460311 0.162520 38.074760 -0.000000 -0.000000 -0.000000 -7.040585 -10.715430 4.750275 0.113487 -0.086659 25.185788 0.447899 -0.468542 32.294955 0.000001 -0.000000 -0.000001 -19.515423 -20.289261 5.002059 0.220593 -0.082072 35.874595 0.255330 -0.051061 35.501612 -0.000001 -0.000002 -0.000002 -97.823404 -29.588963 10.751123 76.773362 -12.078372 -39.499787 44.434028 -13.829090 -26.949474 -0.342600 0.177211 0.138338 0.000000 0.000001 0.000001 -12.680268 28.934846 1.570635 29.712928 16.791369 -4.702463 -10.032692 13.729231 3.464234 -1.096075 1.398674 1.174380 -0.000000 -0.000001 -0.000000 
-24.073669 92.668747 -12.077417 11.751350 -135.346209 15.391188 17.824786 4.364999 -0.558408 8.890002 -0.672215 -1.209728 0.000000 0.000000 0.000000 8.918199 -0.587164 -1.199359 6.896481 42.518160 2.371666 7.475155 47.851028 -29.457520 -0.000000 0.000001 0.000000 -2.111840 -18.783218 11.594750 0.000000 0.000000 0.000000 -57.541366 -46.188717 -44.501971 -278.771794 -147.854266 -272.712433 -38.912421 -6.764449 26.414753 -1.404047 -9.882317 7.759675 0.819661 15.719831 -3.760151 -0.400110 -3.279221 0.388872 0.000003 0.000001 0.000000 13.267465 -0.989204 15.858524 -0.165522 0.299780 -25.929319 -0.143074 0.297224 -27.079946 -0.000002 0.000003 -0.000002 8.542916 -0.376231 4.260953 0.223912 0.635172 -24.725449 0.427277 0.190928 -39.180690 -0.000001 0.000001 -0.000002 6.159691 3.076367 -11.036454 0.030909 0.295202 -24.949173 0.390962 0.790735 -36.964174 0.000001 -0.000000 0.000000 -5.511945 7.619112 -8.705119 0.205043 0.259186 -41.412018 0.241731 0.230287 -41.110482 -0.000002 0.000001 -0.000001 -4.710944 23.091007 2.504144 0.000000 0.000000 0.000000 -57.009093 7.316085 23.385408 120.495274 44.831381 -115.618314 -25.258979 -3.285254 -43.084960 0.246945 10.259862 -10.819172 1.096961 -16.624493 3.332874 3.362448 -13.389927 -8.323975 -0.000000 0.000002 0.000000 19.476640 11.202804 -14.266129 -0.119522 -0.321933 17.109807 -0.094770 -0.296214 22.330776 -0.000000 0.000000 -0.000002 4.332939 2.440181 -5.739231 0.339598 -0.451889 25.964476 0.460628 0.162690 38.119074 -0.000000 0.000000 -0.000000 -7.040674 -10.715780 4.794429 0.113485 -0.087197 25.230031 0.448353 -0.468594 32.339259 0.000000 0.000000 -0.000002 -19.515300 -20.289401 5.046189 0.220731 -0.082241 35.918787 0.255734 -0.051129 35.545872 0.000003 0.000000 0.000001 -100.208130 -29.168115 11.242919 75.982658 -12.318661 -39.758425 44.321425 -14.345935 -28.630283 -0.342612 0.177263 0.138224 -0.000000 0.000000 -0.000000 -10.968073 30.223853 1.068295 28.655485 17.193191 -4.672133 -9.651006 14.093758 3.183436 -1.096909 1.399028 1.174560 0.000000 -0.000001 -0.000000 
-24.680679 93.282097 -12.625287 12.049675 -137.273415 16.059452 18.188819 4.474243 -0.977627 9.182359 -0.573627 -1.355684 0.000000 0.000000 0.000000 9.209428 -0.487412 -1.347773 7.658613 42.872548 1.900520 7.470984 48.226135 -29.784840 0.000000 0.000001 0.000000 -1.708636 -18.296958 14.299378 0.000000 0.000000 0.000000 -63.045180 -44.076645 -47.688647 -278.832719 -146.576802 -272.650141 -36.274209 -4.437913 25.502308 -1.375950 -9.729473 7.818302 0.965334 16.109913 -3.599180 -0.281707 -2.865512 0.599161 -0.000005 0.000001 0.000000 13.273231 -0.990513 15.382342 -0.165120 0.300090 -26.405491 -0.142898 0.297767 -27.556142 -0.000001 0.000000 -0.000000 8.537679 -0.372266 3.784794 0.225192 0.637519 -25.201704 0.429206 0.193018 -39.656888 -0.000000 -0.000002 -0.000001 6.155162 3.082817 -11.512405 0.032061 0.297850 -25.425342 0.392929 0.793089 -37.440324 0.000001 -0.000000 0.000000 -5.521707 7.626086 -9.180911 0.206775 0.260794 -41.888205 0.243482 0.232080 -41.586648 -0.000001 -0.000001 -0.000001 -3.961807 23.402311 0.011321 0.000000 0.000000 0.000000 -60.996718 6.507631 22.843720 122.036178 45.207048 -117.083294 -24.195648 -3.692355 -44.353292 0.251432 10.226662 -10.831631 1.112217 -16.666068 3.315880 3.366196 -13.415588 -8.335306 0.000000 -0.000000 -0.000000 19.476744 11.202716 -14.217320 -0.119495 -0.321979 17.158808 -0.094591 -0.296225 22.379712 0.000001 0.000001 -0.000001 4.332358 2.440073 -5.690261 0.339847 -0.451869 26.013448 0.460917 0.162863 38.168040 -0.000000 -0.000000 0.000001 -7.040679 -10.716131 4.843288 0.113528 -0.087709 25.279005 0.448818 -0.468686 32.388211 -0.000000 0.000000 -0.000001 -19.514993 -20.289478 5.094952 0.220881 -0.082434 35.967793 0.256146 -0.051179 35.594821 -0.000000 0.000000 -0.000001 -102.488573 -28.696633 11.509885 75.246111 -12.769945 -39.878196 43.847000 -14.755468 -30.416024 -0.342533 0.177236 0.138260 0.000001 0.000001 -0.000003 -9.238666 31.402324 0.448905 27.734441 17.546766 -4.651365 -9.371477 14.397810 2.928719 -1.096047 1.399131 1.174711 0.000000 -0.000001 -0.000000 
-25.358915 93.818146 -13.185964 12.347113 -138.978094 16.766298 18.526547 4.571601 -1.383299 9.456798 -0.479590 -1.500249 0.000000 0.000000 0.000000 9.482787 -0.391734 -1.495363 8.404149 43.182457 1.436518 7.469477 48.560733 -30.108994 -0.000000 -0.000001 0.000000 -1.353463 -17.783111 16.989122 0.000000 0.000000 0.000000 -68.037707 -42.061842 -50.427331 -278.809196 -145.498206 -272.534875 -32.375295 -1.747033 24.022492 -1.348035 -9.576547 7.876797 1.107504 16.493348 -3.441756 -0.166602 -2.459200 0.805028 0.000003 0.000000 -0.000001 13.279101 -0.991796 14.914907 -0.164724 0.300422 -26.872884 -0.142758 0.298247 -28.023544 -0.000001 0.000001 0.000001 8.532585 -0.368288 3.317342 0.226408 0.639826 -25.669050 0.431161 0.195030 -40.124312 0.000001 -0.000000 0.000004 6.150696 3.089458 -11.979656 0.033239 0.300449 -25.892747 0.394930 0.795405 -37.907748 -0.000000 0.000001 -0.000001 -5.531913 7.633412 -9.647838 0.208432 0.262447 -42.355615 0.245250 0.233908 -42.054086 -0.000003 0.000002 0.000000 -3.221337 23.818400 -2.377806 0.000000 0.000000 0.000000 -64.631013 5.220869 21.642986 123.514942 45.342002 -118.648405 -23.655937 -3.889355 -45.553216 0.256027 10.192101 -10.844647 1.128787 -16.711229 3.297545 3.369938 -13.441288 -8.346688 0.000000 0.000001 0.000000 19.476674 11.202589 -14.164241 -0.119396 -0.322012 17.211827 -0.094465 -0.296227 22.432831 -0.000001 -0.000000 -0.000001 4.331633 2.439930 -5.637016 0.340112 -0.451852 26.066666 0.461240 0.163012 38.221223 0.000000 -0.000000 -0.000002 -7.040680 -10.716446 4.896204 0.113576 -0.088286 25.332180 0.449259 -0.468802 32.441370 0.000000 -0.000001 0.000000 -19.514636 -20.289494 5.147730 0.221076 -0.082616 36.020895 0.256558 -0.051310 35.647966 -0.000001 -0.000001 -0.000001 -104.729128 -28.149515 11.529402 74.752821 -13.190420 -39.846139 43.726656 -15.213714 -32.205008 -0.342480 0.177233 0.138300 0.000001 0.000002 -0.000001 -7.439309 32.444194 -0.337535 27.014435 17.843108 -4.643845 -9.292766 14.660079 2.658109 -1.091670 1.399548 1.174742 0.000000 0.000001 0.000000 
